HIERARCHY
ROOT Model
{
	OFFSET 0 0 0
	CHANNELS 6 Xposition Yposition Zposition Zrotation Xrotation Yrotation
	JOINT Model1
	{
		OFFSET 0 -2.25479 2.99384
		CHANNELS 3 Zrotation Xrotation Yrotation
		JOINT Model2
		{
			OFFSET 12.111 0 0
			CHANNELS 3 Zrotation Xrotation Yrotation
			JOINT Model3
			{
				OFFSET 11.5502 0 0
				CHANNELS 3 Zrotation Xrotation Yrotation
				JOINT Model4
				{
					OFFSET 11.781 0 0
					CHANNELS 3 Zrotation Xrotation Yrotation
					JOINT Model5
					{
						OFFSET 20.0601 0 0
						CHANNELS 3 Zrotation Xrotation Yrotation
						JOINT Model6
						{
							OFFSET 11.1962 0 0
							CHANNELS 3 Zrotation Xrotation Yrotation
							End Site
							{
								OFFSET 0 0 0
							}
						}
					}
					JOINT Model7
					{
						OFFSET 10.8223 0.417534 3.51114
						CHANNELS 3 Zrotation Xrotation Yrotation
						JOINT Model8
						{
							OFFSET -6.07943 0 0
							CHANNELS 3 Zrotation Xrotation Yrotation
							JOINT Model9
							{
								OFFSET -0.277412 10.39 -0.051239
								CHANNELS 3 Zrotation Xrotation Yrotation
								JOINT Model10
								{
									OFFSET -3.4391 -0.282043 1.86679
									CHANNELS 3 Zrotation Xrotation Yrotation
									JOINT Model11
									{
										OFFSET 13.0269 0 0
										CHANNELS 3 Zrotation Xrotation Yrotation
										JOINT Model12
										{
											OFFSET 10.8866 0 0
											CHANNELS 3 Zrotation Xrotation Yrotation
											JOINT Model13
											{
												OFFSET 16.7317 0 0
												CHANNELS 3 Zrotation Xrotation Yrotation
												JOINT Model14
												{
													OFFSET 11.8292 0 0
													CHANNELS 3 Zrotation Xrotation Yrotation
													JOINT Model15
													{
														OFFSET 4.82751 -3.73566 -0.836517
														CHANNELS 3 Zrotation Xrotation Yrotation
														JOINT Model16
														{
															OFFSET 3.75311 -0.0582886 -0.0186462
															CHANNELS 3 Zrotation Xrotation Yrotation
															JOINT Model17
															{
																OFFSET 2.88689 0.0192337 0.014801
																CHANNELS 3 Zrotation Xrotation Yrotation
																End Site
																{
																	OFFSET 0 0 0
																}
															}
														}
													}
													JOINT Model18
													{
														OFFSET 9.72197 -3.06458 0.23877
														CHANNELS 3 Zrotation Xrotation Yrotation
														JOINT Model19
														{
															OFFSET 4.61131 0 0
															CHANNELS 3 Zrotation Xrotation Yrotation
															JOINT Model20
															{
																OFFSET 2.8969 -7.62939e-006 0
																CHANNELS 3 Zrotation Xrotation Yrotation
																End Site
																{
																	OFFSET 0 0 0
																}
															}
														}
													}
													JOINT Model21
													{
														OFFSET 9.54431 -0.745064 0.588928
														CHANNELS 3 Zrotation Xrotation Yrotation
														JOINT Model22
														{
															OFFSET 5.33978 0 0
															CHANNELS 3 Zrotation Xrotation Yrotation
															JOINT Model23
															{
																OFFSET 3.03619 7.62939e-006 0
																CHANNELS 3 Zrotation Xrotation Yrotation
																End Site
																{
																	OFFSET 0 0 0
																}
															}
														}
													}
													JOINT Model24
													{
														OFFSET 9.47758 1.51286 0.485107
														CHANNELS 3 Zrotation Xrotation Yrotation
														JOINT Model25
														{
															OFFSET 4.96136 7.62939e-006 0
															CHANNELS 3 Zrotation Xrotation Yrotation
															JOINT Model26
															{
																OFFSET 2.51965 0 0
																CHANNELS 3 Zrotation Xrotation Yrotation
																End Site
																{
																	OFFSET 0 0 0
																}
															}
														}
													}
													JOINT Model27
													{
														OFFSET 9.34247 3.34117 -0.239288
														CHANNELS 3 Zrotation Xrotation Yrotation
														JOINT Model28
														{
															OFFSET 3.28259 2.28882e-005 0
															CHANNELS 3 Zrotation Xrotation Yrotation
															JOINT Model29
															{
																OFFSET 2.1292 0 0
																CHANNELS 3 Zrotation Xrotation Yrotation
																End Site
																{
																	OFFSET 0 0 0
																}
															}
														}
													}
												}
											}
										}
									}
								}
							}
						}
					}
					JOINT Model30
					{
						OFFSET 10.8223 0.4179 -3.51108
						CHANNELS 3 Zrotation Xrotation Yrotation
						JOINT Model31
						{
							OFFSET 6.07943 0 0
							CHANNELS 3 Zrotation Xrotation Yrotation
							JOINT Model32
							{
								OFFSET 0.277412 -10.39 0.051239
								CHANNELS 3 Zrotation Xrotation Yrotation
								JOINT Model33
								{
									OFFSET 3.4391 0.282043 -1.86679
									CHANNELS 3 Zrotation Xrotation Yrotation
									JOINT Model34
									{
										OFFSET -13.0269 0 0
										CHANNELS 3 Zrotation Xrotation Yrotation
										JOINT Model35
										{
											OFFSET -10.8866 0 0
											CHANNELS 3 Zrotation Xrotation Yrotation
											JOINT Model36
											{
												OFFSET -16.7317 0 0
												CHANNELS 3 Zrotation Xrotation Yrotation
												JOINT Model37
												{
													OFFSET -11.8292 0 0
													CHANNELS 3 Zrotation Xrotation Yrotation
													JOINT Model38
													{
														OFFSET -4.82751 3.73566 0.836517
														CHANNELS 3 Zrotation Xrotation Yrotation
														JOINT Model39
														{
															OFFSET -3.75311 0.0582886 0.0186462
															CHANNELS 3 Zrotation Xrotation Yrotation
															JOINT Model40
															{
																OFFSET -2.88688 -0.0192337 -0.014801
																CHANNELS 3 Zrotation Xrotation Yrotation
																End Site
																{
																	OFFSET 0 0 0
																}
															}
														}
													}
													JOINT Model41
													{
														OFFSET -9.72197 3.06459 -0.23877
														CHANNELS 3 Zrotation Xrotation Yrotation
														JOINT Model42
														{
															OFFSET -4.6113 0 0
															CHANNELS 3 Zrotation Xrotation Yrotation
															JOINT Model43
															{
																OFFSET -2.8969 0 0
																CHANNELS 3 Zrotation Xrotation Yrotation
																End Site
																{
																	OFFSET 0 0 0
																}
															}
														}
													}
													JOINT Model44
													{
														OFFSET -9.5443 0.745064 -0.588928
														CHANNELS 3 Zrotation Xrotation Yrotation
														JOINT Model45
														{
															OFFSET -5.33978 0 0
															CHANNELS 3 Zrotation Xrotation Yrotation
															JOINT Model46
															{
																OFFSET -3.03619 -1.52588e-005 0
																CHANNELS 3 Zrotation Xrotation Yrotation
																End Site
																{
																	OFFSET 0 0 0
																}
															}
														}
													}
													JOINT Model47
													{
														OFFSET -9.47759 -1.51286 -0.485107
														CHANNELS 3 Zrotation Xrotation Yrotation
														JOINT Model48
														{
															OFFSET -4.96136 -1.52588e-005 0
															CHANNELS 3 Zrotation Xrotation Yrotation
															JOINT Model49
															{
																OFFSET -2.51966 0 0
																CHANNELS 3 Zrotation Xrotation Yrotation
																End Site
																{
																	OFFSET 0 0 0
																}
															}
														}
													}
													JOINT Model50
													{
														OFFSET -9.34246 -3.34118 0.239288
														CHANNELS 3 Zrotation Xrotation Yrotation
														JOINT Model51
														{
															OFFSET -3.2826 -2.28882e-005 0
															CHANNELS 3 Zrotation Xrotation Yrotation
															JOINT Model52
															{
																OFFSET -2.1292 0 0
																CHANNELS 3 Zrotation Xrotation Yrotation
																End Site
																{
																	OFFSET 0 0 0
																}
															}
														}
													}
												}
											}
										}
									}
								}
							}
						}
					}
				}
			}
		}
	}
	JOINT Model53
	{
		OFFSET 4.38026 -2.14632 -1.11517
		CHANNELS 3 Zrotation Xrotation Yrotation
		JOINT Model54
		{
			OFFSET 0 0 4.94998
			CHANNELS 3 Zrotation Xrotation Yrotation
			JOINT Model55
			{
				OFFSET 18.5642 0 0
				CHANNELS 3 Zrotation Xrotation Yrotation
				JOINT Model56
				{
					OFFSET 21.2884 0 0
					CHANNELS 3 Zrotation Xrotation Yrotation
					JOINT Model57
					{
						OFFSET 30.261 0 0
						CHANNELS 3 Zrotation Xrotation Yrotation
						JOINT Model58
						{
							OFFSET 11.7259 0 0
							CHANNELS 3 Zrotation Xrotation Yrotation
							JOINT Model59
							{
								OFFSET 10.682 0 0
								CHANNELS 3 Zrotation Xrotation Yrotation
								End Site
								{
									OFFSET 0 0 0
								}
							}
						}
					}
				}
			}
		}
	}
	JOINT Model60
	{
		OFFSET -4.38026 -2.14632 -1.11517
		CHANNELS 3 Zrotation Xrotation Yrotation
		JOINT Model61
		{
			OFFSET 0 0 -4.94998
			CHANNELS 3 Zrotation Xrotation Yrotation
			JOINT Model62
			{
				OFFSET -18.5642 0 0
				CHANNELS 3 Zrotation Xrotation Yrotation
				JOINT Model63
				{
					OFFSET -21.2884 0 0
					CHANNELS 3 Zrotation Xrotation Yrotation
					JOINT Model64
					{
						OFFSET -30.261 0 0
						CHANNELS 3 Zrotation Xrotation Yrotation
						JOINT Model65
						{
							OFFSET -11.7259 0 0
							CHANNELS 3 Zrotation Xrotation Yrotation
							JOINT Model66
							{
								OFFSET -10.682 0 0
								CHANNELS 3 Zrotation Xrotation Yrotation
								End Site
								{
									OFFSET 0 0 0
								}
							}
						}
					}
				}
			}
		}
	}
}
MOTION
Frames: 6
Frame Time: 0.033333
104.071 168.375 -3.983 102.71 2.73065 88.8972 -180 4.29621e-031 -90 1.70398 -0.69696 -0.71992 3.39944 -1.41541 -1.41895 3.39944 -1.41497 -1.41898 9.55563 1.08029 5.83313 11.281 1.8926 1.41851 120.092 75.5343 58.4939 20.9847 -8.62386 -4.21159 -167.277 84.4999 48.8109 154.193 -6.1552 -29.8943 3.44375e-006 14.5443 3.09865e-005 0.4769 -2.3255 9.23407 -1.63689e-007 -3.48083 -4.26028e-007 1.21108 0.0344065 3.26059 -72.0648 39.0385 39.3397 33.3638 2.10362 14.835 0.588947 0.308273 6.35287 -99.6409 81.413 100.35 -0.0181409 2.75765e-005 -0.117315 -0.124139 0.00241084 -0.799296 -79.8382 79.5773 80.5374 -0.000225785 -0.000221093 2.21573e-005 -0.000956238 0.000122664 -2.7371e-005 -66.7416 80.4058 67.2171 -0.000437137 1.57477e-005 -2.73578e-005 -0.00013661 -0.000109559 -5.46917e-005 -6.42159 81.2158 8.01779 -0.000218537 1.64271e-005 0.000212116 0.000901624 -0.000185453 -0.000218598 -59.9282 75.5373 58.5147 6.60349 -10.1822 -3.39282 -167.277 84.4999 48.8109 -177.873 -28.2805 -21.6826 1.14553e-005 -8.00469 2.77798e-005 -46.0122 18.4158 0.460724 -1.17204e-005 26.9856 6.11976e-006 18.05 2.84905 17.7969 -72.0648 39.0385 39.3397 33.3638 2.10361 14.835 0.588946 0.308272 6.35287 -99.6409 81.413 100.35 -0.0181409 2.94695e-005 -0.117315 -0.124139 0.00241027 -0.799296 -79.8382 79.5773 80.5374 -0.000260636 -0.000219109 2.34727e-005 -0.000956213 0.000122262 -2.7453e-005 -66.7416 80.4058 67.2171 -0.000437128 1.42779e-005 -2.74213e-005 -0.000136598 -0.0001101 -5.47777e-005 -6.42159 81.2158 8.01779 -0.000218624 1.88242e-005 0.000212238 0.000901504 -0.000192267 -0.000218646 0.000811311 0.56661 89.91 -18.5188 -12.8766 -27.1277 -1.29705e-006 -3.40605 -4.66602e-008 55.1869 7.06152 1.63539 2.77058e-007 10.4972 3.17559e-007 -76.0541 20.5729 -10.6255 -35.4947 4.91801e-007 1.79975e-007 -180 -0.566579 -90.09 -9.77614 11.7242 3.55078 5.67871e-006 15.1879 -6.85647e-007 49.7782 -15.5904 -9.72379 -5.28933e-007 -23.8065 -1.73547e-006 -68.7292 3.3585 -2.73318 -35.4947 1.37134e-007 2.81144e-007 
104.101 168.37 -3.95801 102.755 2.87596 88.947 -180 4.29621e-031 -90 1.72225 -0.704946 -0.754474 3.43546 -1.43263 -1.48759 3.43546 -1.43219 -1.48762 9.30608 0.916798 6.77473 11.5331 1.85725 0.804097 120.092 75.5343 58.4939 22.4126 -8.16314 -4.2782 -167.277 84.4999 48.8109 154.828 -7.01619 -28.6095 4.0326e-006 13.4855 3.08439e-005 0.405797 -1.98119 8.90625 -1.59767e-007 -2.9541 -4.25808e-007 1.4459 0.0351211 2.79356 -72.0648 39.0385 39.3397 33.3638 2.10362 14.835 0.588947 0.308273 6.35287 -99.6409 81.413 100.35 -0.0181409 2.75765e-005 -0.117315 -0.124139 0.00241084 -0.799296 -79.8382 79.5773 80.5374 -0.000225785 -0.000221093 2.21573e-005 -0.000956238 0.000122664 -2.7371e-005 -66.7416 80.4058 67.2171 -0.000437137 1.57477e-005 -2.73578e-005 -0.00013661 -0.000109559 -5.46917e-005 -6.42159 81.2158 8.01779 -0.000218537 1.64271e-005 0.000212116 0.000901624 -0.000185453 -0.000218598 -59.9282 75.5373 58.5147 5.71654 -10.5428 -3.42498 -167.277 84.4999 48.8109 -178.765 -28.3366 -22.4778 1.14926e-005 -8.08091 2.7785e-005 -45.7732 18.5199 0.459131 -1.17393e-005 27.143 6.12836e-006 17.995 2.85216 17.8701 -72.0648 39.0385 39.3397 33.3638 2.10361 14.835 0.588946 0.308272 6.35287 -99.6409 81.413 100.35 -0.0181409 2.94695e-005 -0.117315 -0.124139 0.00241027 -0.799296 -79.8382 79.5773 80.5374 -0.000260636 -0.000219109 2.34727e-005 -0.000956213 0.000122262 -2.7453e-005 -66.7416 80.4058 67.2171 -0.000437128 1.42779e-005 -2.74213e-005 -0.000136598 -0.0001101 -5.47777e-005 -6.42159 81.2158 8.01779 -0.000218624 1.88242e-005 0.000212238 0.000901504 -0.000192267 -0.000218646 0.000811311 0.56661 89.91 -18.5302 -12.7709 -27.1494 -1.29691e-006 -3.23494 -4.66521e-008 55.2146 7.02898 1.70032 2.77331e-007 10.4486 3.17509e-007 -76.0629 20.6247 -10.6481 -35.4947 4.89874e-007 1.76286e-007 -180 -0.566579 -90.09 -9.62749 11.7643 3.73123 5.67778e-006 15.1128 -6.85403e-007 49.6764 -15.6727 -9.90433 -5.33486e-007 -23.9438 -1.73731e-006 -68.6548 3.21321 -2.6559 -35.4947 1.36187e-007 2.79323e-007 
104.136 168.37 -3.95102 102.757 2.92941 88.9804 -180 4.29621e-031 -90 1.72787 -0.699205 -0.778049 3.44648 -1.42193 -1.53483 3.44647 -1.42149 -1.53486 9.23411 0.832645 7.40938 11.5699 1.8533 0.385359 120.092 75.5343 58.4939 23.478 -7.51113 -4.30155 -167.277 84.4999 48.8109 155.768 -7.86794 -27.6773 4.52037e-006 12.6012 3.07338e-005 0.348199 -1.68949 8.6158 -1.56453e-007 -2.50855 -4.2565e-007 1.55681 0.0320035 2.34853 -72.0648 39.0385 39.3397 33.3638 2.10362 14.835 0.588947 0.308273 6.35287 -99.6409 81.413 100.35 -0.0181409 2.75765e-005 -0.117315 -0.124139 0.00241084 -0.799296 -79.8382 79.5773 80.5374 -0.000225785 -0.000221093 2.21573e-005 -0.000956238 0.000122664 -2.7371e-005 -66.7416 80.4058 67.2171 -0.000437137 1.57477e-005 -2.73578e-005 -0.00013661 -0.000109559 -5.46917e-005 -6.42159 81.2158 8.01779 -0.000218537 1.64271e-005 0.000212116 0.000901624 -0.000185453 -0.000218598 -59.9282 75.5373 58.5147 5.21993 -10.6029 -3.40642 -167.277 84.4999 48.8109 -179.126 -28.4049 -22.8969 1.15214e-005 -8.13967 2.77891e-005 -45.67 18.3984 0.458008 -1.17175e-005 26.9614 6.11845e-006 18.2201 2.87785 17.8064 -72.0648 39.0385 39.3397 33.3638 2.10361 14.835 0.588946 0.308272 6.35287 -99.6409 81.413 100.35 -0.0181409 2.94695e-005 -0.117315 -0.124139 0.00241027 -0.799296 -79.8382 79.5773 80.5374 -0.000260636 -0.000219109 2.34727e-005 -0.000956213 0.000122262 -2.7453e-005 -66.7416 80.4058 67.2171 -0.000437128 1.42779e-005 -2.74213e-005 -0.000136598 -0.0001101 -5.47777e-005 -6.42159 81.2158 8.01779 -0.000218624 1.88242e-005 0.000212238 0.000901504 -0.000192267 -0.000218646 0.000811311 0.56661 89.91 -18.5284 -12.7215 -27.1541 -1.29685e-006 -3.15527 -4.66485e-008 55.2321 6.99211 1.73606 2.77642e-007 10.3935 3.17453e-007 -76.0916 20.7419 -10.6978 -35.4947 4.87219e-007 1.71527e-007 -180 -0.566579 -90.09 -9.57768 11.7783 3.80406 5.67737e-006 15.0796 -6.85296e-007 49.6346 -15.697 -9.96294 -5.34845e-007 -23.9848 -1.73787e-006 -68.6441 3.17186 -2.63387 -35.4947 1.34905e-007 2.76642e-007 
104.17 168.37 -3.95599 102.749 2.86006 89.0093 -180 4.29621e-031 -90 1.73179 -0.681298 -0.781899 3.45448 -1.38629 -1.54302 3.45448 -1.38585 -1.54304 9.3523 0.872574 7.54449 11.3444 1.90157 0.322659 120.092 75.5343 58.4939 23.8401 -6.85732 -4.26919 -167.277 84.4999 48.8109 157.014 -8.38173 -27.3673 4.62961e-006 12.4023 3.07102e-005 0.336533 -1.66257 8.42852 -1.56137e-007 -2.46606 -4.25636e-007 1.5506 0.0278277 2.05736 -72.0648 39.0385 39.3397 33.3638 2.10362 14.835 0.588947 0.308273 6.35287 -99.6409 81.413 100.35 -0.0181409 2.75765e-005 -0.117315 -0.124139 0.00241084 -0.799296 -79.8382 79.5773 80.5374 -0.000225785 -0.000221093 2.21573e-005 -0.000956238 0.000122664 -2.7371e-005 -66.7416 80.4058 67.2171 -0.000437137 1.57477e-005 -2.73578e-005 -0.00013661 -0.000109559 -5.46917e-005 -6.42159 81.2158 8.01779 -0.000218537 1.64271e-005 0.000212116 0.000901624 -0.000185453 -0.000218598 -59.9282 75.5373 58.5147 5.28465 -10.454 -3.37054 -167.277 84.4999 48.8109 -178.918 -28.417 -22.7647 1.15178e-005 -8.13224 2.77885e-005 -45.7097 18.1797 0.457755 -1.16783e-005 26.6331 6.10076e-006 18.4561 2.89437 17.6772 -72.0648 39.0385 39.3397 33.3638 2.10361 14.835 0.588946 0.308272 6.35287 -99.6409 81.413 100.35 -0.0181409 2.94695e-005 -0.117315 -0.124139 0.00241027 -0.799296 -79.8382 79.5773 80.5374 -0.000260636 -0.000219109 2.34727e-005 -0.000956213 0.000122262 -2.7453e-005 -66.7416 80.4058 67.2171 -0.000437128 1.42779e-005 -2.74213e-005 -0.000136598 -0.0001101 -5.47777e-005 -6.42159 81.2158 8.01779 -0.000218624 1.88242e-005 0.000212238 0.000901504 -0.000192267 -0.000218646 0.000811311 0.56661 89.91 -18.4795 -12.747 -27.1874 -1.29685e-006 -3.15352 -4.66484e-008 55.2339 6.96739 1.75217 2.77851e-007 10.3565 3.17415e-007 -76.1869 20.7136 -10.6666 -35.4947 4.83851e-007 1.6572e-007 -180 -0.566579 -90.09 -9.59276 11.7895 3.8204 5.67744e-006 15.0859 -6.85316e-007 49.6367 -15.6734 -9.95035 -5.33625e-007 -23.948 -1.73737e-006 -68.6696 3.2347 -2.66736 -35.4947 1.33295e-007 2.73118e-007 
104.21 168.367 -3.953 102.795 2.78597 89.0509 -180 4.29621e-031 -90 1.75508 -0.666203 -0.769584 3.5014 -1.35604 -1.51856 3.5014 -1.35561 -1.51859 9.40002 0.948469 7.2685 11.1195 1.9433 0.633864 120.092 75.5343 58.4939 23.9074 -6.72833 -4.26284 -167.277 84.4999 48.8109 157.542 -8.4912 -27.1516 4.5972e-006 12.4613 3.07171e-005 0.327141 -1.63278 8.3039 -1.55793e-007 -2.41982 -4.25621e-007 1.54099 0.0236704 1.76007 -72.0648 39.0385 39.3397 33.3638 2.10362 14.835 0.588947 0.308273 6.35287 -99.6409 81.413 100.35 -0.0181409 2.75765e-005 -0.117315 -0.124139 0.00241084 -0.799296 -79.8382 79.5773 80.5374 -0.000225785 -0.000221093 2.21573e-005 -0.000956238 0.000122664 -2.7371e-005 -66.7416 80.4058 67.2171 -0.000437137 1.57477e-005 -2.73578e-005 -0.00013661 -0.000109559 -5.46917e-005 -6.42159 81.2158 8.01779 -0.000218537 1.64271e-005 0.000212116 0.000901624 -0.000185453 -0.000218598 -59.9282 75.5373 58.5147 5.7519 -10.4359 -3.39834 -167.277 84.4999 48.8109 -178.551 -28.2819 -22.2588 1.14583e-005 -8.01088 2.77802e-005 -45.6883 18.0287 0.457204 -1.16514e-005 26.4067 6.08875e-006 18.5067 2.87479 17.5113 -72.0648 39.0385 39.3397 33.3638 2.10361 14.835 0.588946 0.308272 6.35287 -99.6409 81.413 100.35 -0.0181409 2.94695e-005 -0.117315 -0.124139 0.00241027 -0.799296 -79.8382 79.5773 80.5374 -0.000260636 -0.000219109 2.34727e-005 -0.000956213 0.000122262 -2.7453e-005 -66.7416 80.4058 67.2171 -0.000437128 1.42779e-005 -2.74213e-005 -0.000136598 -0.0001101 -5.47777e-005 -6.42159 81.2158 8.01779 -0.000218624 1.88242e-005 0.000212238 0.000901504 -0.000192267 -0.000218646 0.000811311 0.56661 89.91 -18.388 -12.783 -27.2482 -1.29683e-006 -3.13305 -4.66475e-008 55.2324 6.95517 1.76179 2.77954e-007 10.3382 3.17397e-007 -76.2819 20.606 -10.5985 -35.4947 4.79783e-007 1.58882e-007 -180 -0.566579 -90.09 -9.53714 11.812 3.88344 5.67727e-006 15.072 -6.85272e-007 49.616 -15.6638 -9.99001 -5.33229e-007 -23.9361 -1.73721e-006 -68.6731 3.27397 -2.6883 -35.4947 1.31364e-007 2.68769e-007 
104.243 168.366 -3.961 102.823 2.71144 89.0495 -180 4.29621e-031 -90 1.77343 -0.65265 -0.752899 3.53848 -1.32867 -1.48539 3.53848 -1.32824 -1.48541 9.42781 1.00915 6.70069 10.965 1.93635 1.15051 120.092 75.5343 58.4939 23.7464 -7.20382 -4.29536 -167.277 84.4999 48.8109 156.745 -8.23153 -27.0139 4.60405e-006 12.4489 3.07157e-005 0.285572 -1.34625 8.31032 -1.52565e-007 -1.98552 -4.25497e-007 1.45017 0.0183657 1.44737 -72.0648 39.0385 39.3397 33.3638 2.10362 14.835 0.588947 0.308273 6.35287 -99.6409 81.413 100.35 -0.0181409 2.75765e-005 -0.117315 -0.124139 0.00241084 -0.799296 -79.8382 79.5773 80.5374 -0.000225785 -0.000221093 2.21573e-005 -0.000956238 0.000122664 -2.7371e-005 -66.7416 80.4058 67.2171 -0.000437137 1.57477e-005 -2.73578e-005 -0.00013661 -0.000109559 -5.46917e-005 -6.42159 81.2158 8.01779 -0.000218537 1.64271e-005 0.000212116 0.000901624 -0.000185453 -0.000218598 -59.9282 75.5373 58.5147 6.49675 -10.3292 -3.4232 -167.277 84.4999 48.8109 -177.873 -28.1336 -21.504 1.13876e-005 -7.86631 2.77704e-005 -45.7217 17.8436 0.456999 -1.16185e-005 26.1288 6.07419e-006 18.5231 2.84076 17.2918 -72.0648 39.0385 39.3397 33.3638 2.10361 14.835 0.588946 0.308272 6.35287 -99.6409 81.413 100.35 -0.0181409 2.94695e-005 -0.117315 -0.124139 0.00241027 -0.799296 -79.8382 79.5773 80.5374 -0.000260636 -0.000219109 2.34727e-005 -0.000956213 0.000122262 -2.7453e-005 -66.7416 80.4058 67.2171 -0.000437128 1.42779e-005 -2.74213e-005 -0.000136598 -0.0001101 -5.47777e-005 -6.42159 81.2158 8.01779 -0.000218624 1.88242e-005 0.000212238 0.000901504 -0.000192267 -0.000218646 0.000811311 0.56661 89.91 -18.3182 -12.8343 -27.234 -1.29688e-006 -3.19133 -4.66501e-008 55.2237 6.95 1.70426 2.77999e-007 10.3301 3.17388e-007 -76.2717 20.6768 -10.6335 -35.4947 4.75028e-007 1.51034e-007 -180 -0.566579 -90.09 -9.54736 11.763 3.80307 5.67706e-006 15.0553 -6.85218e-007 49.6712 -15.5982 -9.9074 -5.29738e-007 -23.8308 -1.7358e-006 -68.7673 3.3243 -2.71485 -35.4947 1.29119e-007 2.63613e-007 
